# xmcd
#
# Track frame offsets: 
#        150
#        21131
#        31980
#        52298
#        67634
#        88472
#        109713
#        121683
#        134790
#        151323
#        164727
#        181086
#        201033
#
# Disc length: 2883 seconds
#
# Revision: 0
# Processed by: cddbd v1.5.2PL0 Copyright (c) Steve Scherf et al.
# Submitted via: ExactAudioCopy v0.90b4
#
DISCID=b20b410d
DTITLE=Old Timey Messangers - Lite Years Behind
DYEAR=2007
DGENRE=Bluegrass
TTITLE0=Big Scioty
TTITLE1=Ways of the world
TTITLE2=Red rocking chair
TTITLE3=Susan's gone
TTITLE4=Calvin's bells
TTITLE5=Snow White Dove
TTITLE6=Greasy Coat
TTITLE7=North Carolina Breakdown
TTITLE8=In the Pines
TTITLE9=Big Eyed Rabbit
TTITLE10=Down on my knees
TTITLE11=Old Granny Flanagan
TTITLE12=Idiot's tune
EXTD=
EXTT0=
EXTT1=
EXTT2=
EXTT3=
EXTT4=
EXTT5=
EXTT6=
EXTT7=
EXTT8=
EXTT9=
EXTT10=
EXTT11=
EXTT12=
PLAYORDER=
